<svg xmlns="http://www.w3.org/2000/svg" width="24" height="24" fill="none" viewBox="0 0 24 24">
  <path stroke="#000" stroke-linecap="round" stroke-linejoin="round" stroke-width="1.5" d="M15.077 12c0 1.657-1.378 3-3.077 3-1.7 0-3.077-1.343-3.077-3S10.301 9 12 9c1.7 0 3.077 1.343 3.077 3Z"/>
  <path stroke="#000" stroke-linecap="round" stroke-linejoin="round" stroke-width="1.5" d="M10.35 4a.51.51 0 0 0-.498.379l-.416 1.619c-.533.217-1.031.5-1.484.837l-1.647-.46a.519.519 0 0 0-.585.231L4.069 9.394a.49.49 0 0 0 .087.61l1.232 1.16a6.403 6.403 0 0 0 0 1.672l-1.232 1.16a.49.49 0 0 0-.087.61l1.65 2.788a.518.518 0 0 0 .586.23l1.647-.459c.453.338.951.62 1.484.837l.416 1.62a.51.51 0 0 0 .497.378h3.302a.51.51 0 0 0 .497-.379l.416-1.619a6.705 6.705 0 0 0 1.484-.837l1.647.46a.519.519 0 0 0 .585-.231l1.651-2.788a.49.49 0 0 0-.087-.61l-1.232-1.16a6.403 6.403 0 0 0 0-1.672l1.232-1.16a.49.49 0 0 0 .087-.61l-1.65-2.788a.519.519 0 0 0-.586-.23l-1.647.459a6.702 6.702 0 0 0-1.484-.837l-.416-1.62A.51.51 0 0 0 13.651 4h-3.302Z"/>
</svg>